<?xml version="1.0" encoding="iso-8859-1"?>
<!-- Generator: Adobe Illustrator 19.0.0, SVG Export Plug-In . SVG Version: 6.00 Build 0)  -->
<svg xmlns="http://www.w3.org/2000/svg" xmlns:xlink="http://www.w3.org/1999/xlink" version="1.1" id="Capa_1" x="0px" y="0px" viewBox="0 0 512 512" style="enable-background:new 0 0 512 512;" xml:space="preserve" width="512px" height="512px">
<g>
	<g>
		<path d="M452.267,288.639v-75.305c0-0.176-0.084-0.326-0.095-0.499c-0.048-0.571-0.155-1.136-0.32-1.685    c-0.098-0.446-0.232-0.883-0.402-1.306c-0.239-0.477-0.522-0.93-0.846-1.354c-0.252-0.4-0.538-0.777-0.854-1.128    c-0.379-0.347-0.789-0.658-1.225-0.931c-0.403-0.312-0.834-0.585-1.287-0.818c-0.109-0.049-0.183-0.143-0.296-0.188    l-166.894-67.799c0.982-3.116,1.505-6.359,1.552-9.627c-0.051-15.039-9.958-28.265-24.376-32.541    c2.133-4.887,8.022-10.125,24.376-10.125c4.713,0,8.533-3.82,8.533-8.533s-3.82-8.533-8.533-8.533    c-23.401,0-38.537,9.791-41.934,26.584c-9.575,2.289-17.693,8.607-22.263,17.327l-34.578-14.044    c-8.326-3.367-17.805-2.141-25,3.233L63.15,172.375c-0.134,0.101-0.217,0.243-0.344,0.351c-0.09,0.075-0.211,0.096-0.298,0.174    c-0.148,0.136-0.206,0.335-0.345,0.481c-0.55,0.573-1.015,1.222-1.382,1.926c-0.142,0.244-0.271,0.495-0.386,0.752    c-0.4,0.966-0.617,1.998-0.641,3.043l-0.021,0.098v109.439C20.655,305.389,0,326.481,0,349.867    c0,58.758,130.158,93.867,256,93.867s256-35.108,256-93.867C512,326.481,491.345,305.389,452.267,288.639z M247.467,110.933    c9.426,0,17.067,7.641,17.067,17.067s-7.641,17.067-17.067,17.067S230.4,137.426,230.4,128    C230.412,118.579,238.046,110.946,247.467,110.933z M168.058,115.017c2.408-1.776,5.562-2.183,8.342-1.075l37.033,15.046    c0.344,13.521,8.667,25.554,21.198,30.645c12.531,5.091,26.888,2.272,36.564-7.179l116.14,47.182l-253.878-23.08l-42.316-3.847    L168.058,115.017z M76.8,188.546l358.4,32.582v34.267L76.8,230.959V188.546z M76.8,248.067l358.4,24.442V306.6L76.8,282.158    V248.067z M76.8,299.271l358.4,24.436v25.367c-0.003,2.329-0.956,4.555-2.64,6.165s-3.95,2.462-6.277,2.36L84.95,342.083    c-4.563-0.197-8.158-3.958-8.15-8.525V299.271z M256,426.667c-113.008,0-238.933-31.542-238.933-76.8    c0-14.45,15.398-29.635,42.667-42.532v26.224c-0.02,13.696,10.758,24.975,24.442,25.575l341.333,15.517    c0.4,0.017,0.8,0.025,1.192,0.025c14.124-0.021,25.564-11.476,25.567-25.6v-41.741c27.269,12.897,42.667,28.083,42.667,42.532    C494.933,395.125,369.008,426.667,256,426.667z" fill="#5f5e5e"/>
	</g>
</g>
<g>
</g>
<g>
</g>
<g>
</g>
<g>
</g>
<g>
</g>
<g>
</g>
<g>
</g>
<g>
</g>
<g>
</g>
<g>
</g>
<g>
</g>
<g>
</g>
<g>
</g>
<g>
</g>
<g>
</g>
</svg>
