<?xml version="1.0" encoding="iso-8859-1"?>
<!-- Generator: Adobe Illustrator 19.0.0, SVG Export Plug-In . SVG Version: 6.00 Build 0)  -->
<svg version="1.1" id="Capa_1" xmlns="http://www.w3.org/2000/svg" xmlns:xlink="http://www.w3.org/1999/xlink" x="0px" y="0px"
	 viewBox="0 0 512 512" style="enable-background:new 0 0 512 512;" xml:space="preserve">
<g>
	<g>
		<g>
			<path d="M396.717,200.181l-124.435-50.552c-10.367,10.126-25.75,13.146-39.176,7.691c-13.426-5.454-22.344-18.346-22.712-32.834
				l-39.679-16.12c-2.978-1.187-6.358-0.751-8.938,1.152l-82.411,61.812l45.338,4.122L396.717,200.181z"/>
			<path d="M246.857,141.714c8.365,0.03,15.676-5.639,17.729-13.748c2.054-8.109-1.678-16.575-9.049-20.53
				c0.255-0.741,0.41-1.512,0.462-2.293c0-4.527,0-18.286,27.429-18.286c5.049,0,9.143-4.093,9.143-9.143
				c0-5.049-4.093-9.143-9.143-9.143c-28.625,0-45.714,13.67-45.714,36.571c0.052,0.782,0.207,1.553,0.462,2.293
				c-7.371,3.955-11.102,12.421-9.049,20.53S238.492,141.744,246.857,141.714z"/>
			<polygon points="448,223.205 64,188.297 64,233.737 448,259.922 			"/>
			<polygon points="448,278.263 64,252.069 64,288.594 448,314.789 			"/>
			<path d="M72.732,352.804l365.714,16.625c2.493,0.109,4.922-0.805,6.725-2.529c1.803-1.724,2.825-4.11,2.828-6.605v-27.179
				L64,306.934v36.736C63.991,348.563,67.843,352.593,72.732,352.804z"/>
			<path d="M466.286,315.573v44.722c-0.003,15.133-12.26,27.406-27.393,27.429c-0.42,0-0.848-0.009-1.277-0.027L71.902,371.071
				c-14.661-0.643-26.209-12.727-26.188-27.402v-28.097C16.498,329.391,0,345.661,0,361.143c0,48.491,134.92,82.286,256,82.286
				s256-33.795,256-82.286C512,345.661,495.502,329.391,466.286,315.573z"/>
		</g>
	</g>
</g>
<g>
</g>
<g>
</g>
<g>
</g>
<g>
</g>
<g>
</g>
<g>
</g>
<g>
</g>
<g>
</g>
<g>
</g>
<g>
</g>
<g>
</g>
<g>
</g>
<g>
</g>
<g>
</g>
<g>
</g>
</svg>
