<?xml version="1.0" encoding="iso-8859-1"?>
<!-- Generator: Adobe Illustrator 19.0.0, SVG Export Plug-In . SVG Version: 6.00 Build 0)  -->
<svg version="1.1" id="Capa_1" xmlns="http://www.w3.org/2000/svg" xmlns:xlink="http://www.w3.org/1999/xlink" x="0px" y="0px"
	 viewBox="0 0 511.999 511.999" style="enable-background:new 0 0 511.999 511.999;" xml:space="preserve">
<g>
	<g>
		<path d="M192.661,326.839l-6.882-6.882c-2.167-2.167-5.68-2.167-7.847,0l-6.882,6.882c-2.167,2.167-2.167,5.68,0,7.847
			l6.882,6.882c2.167,2.167,5.68,2.167,7.847,0l6.882-6.882C194.828,332.519,194.828,329.006,192.661,326.839z"/>
	</g>
</g>
<g>
	<g>
		<path d="M264.08,254.352l-6.882-6.882c-2.167-2.167-5.68-2.167-7.847,0l-6.882,6.882c-2.167,2.167-2.167,5.68,0,7.847l6.882,6.882
			c2.167,2.167,5.68,2.167,7.847,0l6.882-6.882C266.247,260.032,266.247,256.519,264.08,254.352z"/>
	</g>
</g>
<g>
	<g>
		<path d="M121.737,255.915l-6.882-6.882c-2.167-2.167-5.68-2.167-7.847,0l-6.882,6.882c-2.167,2.167-2.167,5.68,0,7.847
			l6.882,6.882c2.167,2.167,5.68,2.167,7.847,0l6.882-6.882C123.905,261.595,123.905,258.082,121.737,255.915z"/>
	</g>
</g>
<g>
	<g>
		<path d="M266.886,110.149l-6.882-6.882c-2.167-2.167-5.68-2.167-7.847,0l-6.882,6.882c-2.167,2.167-2.167,5.68,0,7.847
			l6.882,6.882c2.167,2.167,5.68,2.167,7.847,0l6.882-6.882C269.053,115.829,269.053,112.316,266.886,110.149z"/>
	</g>
</g>
<g>
	<g>
		<path d="M193.157,183.43l-6.882-6.882c-2.167-2.167-5.68-2.167-7.847,0l-6.882,6.882c-2.167,2.167-2.167,5.68,0,7.847l6.882,6.882
			c2.167,2.167,5.68,2.167,7.847,0l6.882-6.882C195.324,189.11,195.324,185.597,193.157,183.43z"/>
	</g>
</g>
<g>
	<g>
		<path d="M264.034,398.21l-6.883-6.882c-2.167-2.167-5.68-2.167-7.847,0l-6.882,6.882c-2.167,2.167-2.167,5.681,0,7.847
			l6.883,6.882c2.167,2.167,5.68,2.167,7.847,0l6.882-6.882C266.201,403.891,266.201,400.376,264.034,398.21z"/>
	</g>
</g>
<g>
	<g>
		<path d="M335.452,325.725l-6.882-6.882c-2.167-2.167-5.68-2.167-7.847,0l-6.882,6.882c-2.167,2.167-2.167,5.68,0,7.847
			l6.882,6.882c2.167,2.167,5.68,2.167,7.847,0l6.882-6.882C337.62,331.405,337.62,327.892,335.452,325.725z"/>
	</g>
</g>
<g>
	<g>
		<path d="M337.81,181.072l-6.882-6.882c-2.167-2.167-5.68-2.167-7.847,0l-6.882,6.882c-2.167,2.167-2.167,5.68,0,7.847l6.882,6.882
			c2.167,2.167,5.68,2.167,7.847,0l6.882-6.882C339.977,186.753,339.977,183.24,337.81,181.072z"/>
	</g>
</g>
<g>
	<g>
		<path d="M409.182,252.444l-6.882-6.882c-2.167-2.167-5.68-2.167-7.847,0l-6.882,6.882c-2.167,2.167-2.167,5.68,0,7.847
			l6.882,6.882c2.167,2.167,5.68,2.167,7.847,0l6.882-6.882C411.35,258.124,411.35,254.611,409.182,252.444z"/>
	</g>
</g>
<g>
	<g>
		<path d="M498.379,223.116L288.884,13.62c-18.132-18.131-47.636-18.13-65.766,0L13.621,223.116C4.838,231.9,0,243.578,0,256
			c0,12.421,4.838,24.1,13.621,32.883l209.495,209.495c9.066,9.066,20.975,13.599,32.883,13.599
			c11.909,0,23.819-4.533,32.884-13.599l209.495-209.495c8.783-8.783,13.621-20.462,13.621-32.883
			C512,243.578,507.162,231.9,498.379,223.116z M345.624,146.436l19.94,19.94c10.268,10.267,10.268,26.973,0,37.24l-19.94,19.94
			c-5.134,5.134-11.877,7.7-18.62,7.7s-13.487-2.566-18.62-7.7l-19.94-19.94c-10.268-10.267-10.268-26.973,0-37.24l19.94-19.94
			C318.652,136.168,335.356,136.168,345.624,146.436z M291.834,276.896l-19.94,19.94c-5.134,5.134-11.877,7.7-18.62,7.7
			s-13.487-2.566-18.62-7.7l-19.94-19.94c-10.268-10.267-10.268-26.973,0-37.24l19.94-19.94c10.268-10.268,26.972-10.268,37.24,0
			l19.94,19.94C302.102,249.924,302.102,266.629,291.834,276.896z M217.52,95.453l19.941-19.94
			c4.972-4.973,11.585-7.712,18.619-7.712c7.033,0,13.647,2.739,18.62,7.712l19.94,19.94c10.268,10.267,10.268,26.973,0,37.24
			l-19.94,19.94c-4.974,4.974-11.587,7.712-18.62,7.712c-7.034,0-13.648-2.74-18.62-7.713l-19.94-19.938
			C207.253,122.425,207.253,105.719,217.52,95.453z M143.791,168.733l19.94-19.94c10.268-10.268,26.972-10.268,37.24,0l19.94,19.94
			c10.268,10.267,10.268,26.973,0,37.24l-19.94,19.94c-5.134,5.134-11.877,7.7-18.62,7.7s-13.487-2.566-18.62-7.7l-19.94-19.94
			C133.523,195.706,133.523,179,143.791,168.733z M110.931,306.1c-6.743,0-13.487-2.566-18.62-7.7l-19.94-19.94
			c-10.268-10.267-10.268-26.973,0-37.24l19.94-19.94c10.268-10.268,26.972-10.268,37.24,0l19.94,19.94
			c10.268,10.267,10.268,26.973,0,37.24l-19.94,19.94C124.418,303.533,117.674,306.1,110.931,306.1z M181.855,377.022
			c-6.743,0-13.487-2.565-18.62-7.698v-0.001l-19.94-19.94c-4.974-4.974-7.713-11.587-7.713-18.62s2.74-13.647,7.713-18.621
			l19.94-19.939c10.268-10.268,26.972-10.268,37.24,0l19.94,19.94c4.974,4.973,7.713,11.586,7.713,18.62s-2.74,13.647-7.713,18.62
			l-19.94,19.94C195.34,374.456,188.598,377.022,181.855,377.022z M291.788,420.754l-19.942,19.941
			c-4.974,4.974-11.586,7.712-18.62,7.712c-7.033,0-13.646-2.74-18.619-7.712l-19.941-19.94
			c-10.266-10.268-10.266-26.973-0.001-37.239l19.942-19.941c4.972-4.973,11.585-7.712,18.619-7.712
			c7.034,0,13.647,2.739,18.62,7.712l19.941,19.939C302.053,393.783,302.053,410.487,291.788,420.754z M363.207,348.269
			l-19.94,19.94c-5.134,5.134-11.877,7.7-18.62,7.7s-13.487-2.566-18.62-7.7l-19.94-19.94c-10.268-10.267-10.268-26.973,0-37.24
			l19.94-19.94c10.268-10.268,26.972-10.268,37.24,0l19.939,19.94C373.475,321.295,373.475,338.002,363.207,348.269z
			 M436.937,274.988l-19.94,19.94c-5.134,5.134-11.877,7.7-18.62,7.7s-13.487-2.566-18.62-7.7l-19.94-19.94
			c-10.268-10.267-10.268-26.973,0-37.24l19.94-19.94c10.268-10.268,26.972-10.268,37.24,0l19.94,19.94
			C447.204,248.016,447.204,264.721,436.937,274.988z"/>
	</g>
</g>
<g>
</g>
<g>
</g>
<g>
</g>
<g>
</g>
<g>
</g>
<g>
</g>
<g>
</g>
<g>
</g>
<g>
</g>
<g>
</g>
<g>
</g>
<g>
</g>
<g>
</g>
<g>
</g>
<g>
</g>
</svg>
