<?xml version="1.0" encoding="iso-8859-1"?>
<!-- Generator: Adobe Illustrator 19.0.0, SVG Export Plug-In . SVG Version: 6.00 Build 0)  -->
<svg xmlns="http://www.w3.org/2000/svg" xmlns:xlink="http://www.w3.org/1999/xlink" version="1.1" id="Capa_1" x="0px" y="0px" viewBox="0 0 511.999 511.999" style="enable-background:new 0 0 511.999 511.999;" xml:space="preserve" width="512px" height="512px">
<g>
	<g>
		<path d="M498.379,223.116L288.884,13.62c-18.132-18.131-47.636-18.13-65.766,0L13.621,223.116C4.838,231.9,0,243.578,0,256    c0,12.421,4.838,24.1,13.621,32.883l209.495,209.495c9.066,9.066,20.975,13.599,32.883,13.599    c11.909,0,23.819-4.533,32.884-13.599l209.495-209.495c8.783-8.783,13.621-20.462,13.621-32.883    C512,243.578,507.162,231.9,498.379,223.116z M477.154,267.658L267.659,477.154c-6.43,6.428-16.888,6.429-23.317,0L34.846,267.658    c-6.429-6.429-6.429-16.888,0-23.316L244.341,34.846c6.428-6.428,16.888-6.43,23.317,0l209.495,209.495    C483.583,250.77,483.583,261.23,477.154,267.658z" fill="#5f5e5e"/>
	</g>
</g>
<g>
	<g>
		<path d="M294.64,95.452l-19.94-19.94c-4.974-4.974-11.587-7.712-18.62-7.712c-7.034,0-13.648,2.74-18.619,7.712l-19.941,19.94    c-10.268,10.267-10.268,26.973,0,37.24l19.94,19.939c4.973,4.975,11.586,7.713,18.62,7.713c7.033,0,13.647-2.739,18.62-7.712    l19.94-19.94C304.908,122.425,304.908,105.718,294.64,95.452z M256.081,128.802l-14.73-14.729l14.73-14.729l14.73,14.729    L256.081,128.802z" fill="#5f5e5e"/>
	</g>
</g>
<g>
	<g>
		<path d="M365.564,166.375l-19.94-19.94c-10.268-10.268-26.972-10.268-37.24,0l-19.94,19.94    c-10.266,10.268-10.266,26.973,0.001,37.24l19.94,19.94c5.134,5.134,11.877,7.7,18.62,7.7s13.487-2.566,18.62-7.7l19.94-19.94    C375.831,193.348,375.831,176.642,365.564,166.375z M327.004,199.725l-14.73-14.729l14.73-14.729l14.73,14.729L327.004,199.725z" fill="#5f5e5e"/>
	</g>
</g>
<g>
	<g>
		<path d="M436.936,237.749l-19.939-19.94c-10.268-10.268-26.972-10.268-37.24,0l-19.94,19.94c-10.268,10.267-10.268,26.973,0,37.24    l19.94,19.94c5.134,5.134,11.877,7.7,18.62,7.7s13.487-2.566,18.62-7.7l19.94-19.94    C447.204,264.722,447.204,248.016,436.936,237.749z M398.376,271.098l-14.73-14.729l14.73-14.729l14.73,14.729L398.376,271.098z" fill="#5f5e5e"/>
	</g>
</g>
<g>
	<g>
		<path d="M220.911,168.732l-19.94-19.94c-10.268-10.268-26.972-10.268-37.24,0l-19.94,19.94c-10.268,10.267-10.268,26.973,0,37.24    l19.941,19.94c5.134,5.134,11.877,7.7,18.62,7.7c6.743,0,13.487-2.566,18.62-7.7l19.94-19.94    C231.179,195.706,231.179,178.999,220.911,168.732z M182.351,202.082l-14.73-14.729l14.73-14.729l14.73,14.729L182.351,202.082z" fill="#5f5e5e"/>
	</g>
</g>
<g>
	<g>
		<path d="M291.834,239.657l-19.94-19.94c-10.267-10.268-26.972-10.268-37.239,0l-19.94,19.94c-10.268,10.267-10.268,26.973,0,37.24    l19.94,19.94c5.134,5.134,11.877,7.7,18.62,7.7c6.743,0,13.487-2.566,18.62-7.7l19.94-19.94    C302.102,266.63,302.102,249.924,291.834,239.657z M253.274,273.006l-14.73-14.729l14.73-14.729l14.73,14.729L253.274,273.006z" fill="#5f5e5e"/>
	</g>
</g>
<g>
	<g>
		<path d="M363.207,311.029l-19.94-19.94c-10.268-10.268-26.972-10.268-37.24,0l-19.94,19.94c-10.268,10.267-10.268,26.973,0,37.24    l19.94,19.94c5.134,5.134,11.877,7.7,18.62,7.7s13.487-2.566,18.62-7.7l19.941-19.94    C373.475,338.002,373.475,321.295,363.207,311.029z M324.647,344.379l-14.73-14.73l14.73-14.729l14.73,14.729L324.647,344.379z" fill="#5f5e5e"/>
	</g>
</g>
<g>
	<g>
		<path d="M149.491,241.219l-19.94-19.94c-10.268-10.268-26.972-10.268-37.24,0l-19.939,19.94c-10.268,10.267-10.268,26.973,0,37.24    l19.94,19.94c5.134,5.134,11.877,7.7,18.62,7.7s13.487-2.566,18.62-7.7l19.94-19.94    C159.759,268.192,159.759,251.487,149.491,241.219z M110.931,274.569l-14.73-14.729l14.73-14.729l14.73,14.729L110.931,274.569z" fill="#5f5e5e"/>
	</g>
</g>
<g>
	<g>
		<path d="M220.415,312.142l-19.94-19.94c-10.268-10.268-26.972-10.268-37.24,0l-19.94,19.939    c-4.974,4.974-7.713,11.587-7.713,18.621c0,7.034,2.74,13.647,7.713,18.62l19.94,19.94v0.001    c5.134,5.133,11.877,7.698,18.62,7.698s13.487-2.566,18.62-7.699l19.94-19.94c4.975-4.973,7.714-11.586,7.714-18.62    S225.389,317.115,220.415,312.142z M181.855,345.492l-14.729-14.729l14.729-14.73l14.73,14.729L181.855,345.492z" fill="#5f5e5e"/>
	</g>
</g>
<g>
	<g>
		<path d="M291.787,383.515l-19.941-19.94c-4.974-4.974-11.586-7.712-18.62-7.712s-13.648,2.74-18.619,7.712l-19.942,19.941    c-10.265,10.267-10.265,26.971,0.001,37.239l19.941,19.94c4.974,4.973,11.586,7.712,18.619,7.712    c7.034,0,13.647-2.739,18.62-7.712l19.942-19.941C302.053,410.487,302.053,393.783,291.787,383.515z M253.227,416.864    l-14.731-14.729l14.73-14.729l14.731,14.729L253.227,416.864z" fill="#5f5e5e"/>
	</g>
</g>
<g>
</g>
<g>
</g>
<g>
</g>
<g>
</g>
<g>
</g>
<g>
</g>
<g>
</g>
<g>
</g>
<g>
</g>
<g>
</g>
<g>
</g>
<g>
</g>
<g>
</g>
<g>
</g>
<g>
</g>
</svg>
