<?xml version="1.0" encoding="iso-8859-1"?>
<!-- Generator: Adobe Illustrator 19.0.0, SVG Export Plug-In . SVG Version: 6.00 Build 0)  -->
<svg xmlns="http://www.w3.org/2000/svg" xmlns:xlink="http://www.w3.org/1999/xlink" version="1.1" id="Capa_1" x="0px" y="0px" viewBox="0 0 512 512" style="enable-background:new 0 0 512 512;" xml:space="preserve" width="512px" height="512px">
<g>
	<g>
		<path d="M495.236,284.999c0-8.284-6.716-15-15-15h-18.772c2.505-9.719,3.772-19.748,3.772-30    c0-58.783-42.647-108.311-99.291-118.206c-11.315-25.071-31.885-44.34-56.767-54.288c3.844-6.625,6.057-14.31,6.057-22.505    c0-24.813-20.187-45-45-45s-45,20.187-45,45c0,8.191,2.211,15.871,6.051,22.494c-19.195,7.695-35.604,20.901-47.268,37.649    c-12.05-12.049-83.12-83.119-90.456-90.455c-17.545-17.546-46.094-17.546-63.639,0c-17.546,17.545-17.546,46.094,0,63.639    c10.879,10.879,79.071,79.072,90.455,90.456c-27.261,18.984-45.142,50.549-45.142,86.216c0,5.049,0.378,10.055,1.086,15H60.236    c-8.284,0-15,6.716-15,15c0,72.091,46.748,134.663,113.262,156.683c-0.511,0.507-1.031,1.002-1.531,1.526    c-14.014,14.659-21.731,33.762-21.731,53.792c0,8.284,6.716,15,15,15h240c8.284,0,15-6.716,15-15    c0-20.029-7.718-39.133-21.73-53.792c-0.5-0.523-1.02-1.019-1.531-1.526C448.481,419.665,495.236,357.118,495.236,284.999z     M433.004,220.039c1.46,6.422,2.234,13.102,2.234,19.959c0,10.366-1.723,20.419-5.118,30H260.355v0.001    c-3.523-9.942-5.16-20.165-5.114-30.322c5.763,1.849,11.999,2.725,18.548,2.367c16.203-0.881,30.666-9.14,39.679-22.659    c3.973-5.958,10.358-9.375,17.52-9.375s13.547,3.417,17.52,9.376c9.49,14.236,25.371,22.735,42.48,22.735    C407.829,242.121,423.465,233.874,433.004,220.039z M420.235,190.306c-4.537,3.433-8.519,7.624-11.729,12.439    c-3.973,5.958-10.358,9.376-17.52,9.376s-13.547-3.417-17.52-9.375c-9.49-14.236-25.371-22.735-42.48-22.735    c-17.108,0-32.991,8.5-42.48,22.734c-3.718,5.576-9.676,8.982-16.347,9.345c-4.142,0.228-8.126-0.721-11.569-2.673    c12.546-34.617,45.753-59.418,84.646-59.418C376.506,149.999,404.098,166.032,420.235,190.306z M270.236,29.999    c8.271,0,15,6.729,15,15s-6.729,15-15,15s-15-6.729-15-15S261.965,29.999,270.236,29.999z M270.236,89.999    c24.399,0,46.774,11.834,60.645,30.862c-35.374,4.236-66.07,23.915-85.121,52.089c-14.237-11.387-31.18-18.86-49.242-21.681    C202.989,116.452,233.572,89.999,270.236,89.999z M148.539,112.087l21.5,21.499c-1.759,5.599-3.057,11.4-3.858,17.356    c-5.956,0.801-11.757,2.098-17.356,3.857l-17.257-17.256L148.539,112.087z M64.936,70.911L51.138,57.113    c-5.849-5.848-5.849-15.364,0-21.213c5.85-5.848,15.365-5.848,21.213,0l9.555,9.555L64.936,70.911z M109.935,115.91L86.568,92.543    l16.971-25.456l23.367,23.367L109.935,115.91z M180.236,179.999c19.374,0,37.769,7.427,51.646,20.617    c-4.349,12.481-6.646,25.766-6.646,39.383c0,10.252,1.267,20.281,3.773,30H106.747c-0.996-4.908-1.511-9.922-1.511-15    C105.236,213.644,138.881,179.999,180.236,179.999z M167.684,481.999c6.149-18.389,23.153-32,42.553-32h120    c19.399,0,36.403,13.611,42.552,32H167.684z M330.236,419.999h-120c-35.246,0-67.375-13.584-91.442-35.783    c6.527-3.43,12.351-8.024,17.189-13.509c11.002,12.476,27.1,20.358,45.003,20.358c17.901,0,33.997-7.881,45-20.354    c11.003,12.473,27.099,20.354,45,20.354s33.997-7.881,45-20.354c11.003,12.473,27.099,20.354,45,20.354    c17.891,0,33.979-7.872,44.98-20.333c0.625,0.708,1.269,1.403,1.929,2.085c4.256,4.392,9.085,8.044,14.315,10.908    C398.086,406.216,365.742,419.999,330.236,419.999z M420.986,331.066c0-8.284-6.716-15-15-15s-15,6.716-15,15    c0,16.542-13.458,30-30,30s-30-13.458-30-30c0-8.284-6.716-15-15-15s-15,6.716-15,15c0,16.542-13.458,30-30,30s-30-13.458-30-30    c0-8.284-6.716-15-15-15s-15,6.716-15,15c0,16.542-13.458,30-30,30s-30-13.458-30-30c0-8.284-6.716-15-15-15s-15,6.716-15,15    c0,14.062-9.736,25.896-22.82,29.125c-11.836-17.585-19.647-38.092-22.101-60.192c16.953,0,371.326,0,388.343,0    c-2.44,21.966-10.175,42.357-21.891,59.87C429.99,356.24,420.986,344.751,420.986,331.066z" fill="#5f5e5e"/>
	</g>
</g>
<g>
</g>
<g>
</g>
<g>
</g>
<g>
</g>
<g>
</g>
<g>
</g>
<g>
</g>
<g>
</g>
<g>
</g>
<g>
</g>
<g>
</g>
<g>
</g>
<g>
</g>
<g>
</g>
<g>
</g>
</svg>
